<svg width="81" height="80" viewBox="0 0 81 80" fill="none" xmlns="http://www.w3.org/2000/svg">
    <path d="M64.5 44.8002C67.1509 44.8002 69.3 42.6512 69.3 40.0002C69.3 37.3492 67.1509 35.2002 64.5 35.2002C61.849 35.2002 59.7 37.3492 59.7 40.0002C59.7 42.6512 61.849 44.8002 64.5 44.8002Z" fill="#4ED9DF"/>
    <g opacity="0.975">
    <path d="M54.0765 60.365C55.951 62.2395 58.9902 62.2395 60.8647 60.365C62.7392 58.4904 62.7392 55.4512 60.8647 53.5767C58.9902 51.7022 55.951 51.7022 54.0765 53.5767C52.202 55.4512 52.202 58.4904 54.0765 60.365Z" fill="#4ED9DF"/>
    </g>
    <g opacity="0.75">
    <path d="M35.6999 64.0002C35.6999 66.6512 37.849 68.8002 40.4999 68.8002C43.1509 68.8002 45.2999 66.6512 45.2999 64.0002C45.2999 61.3492 43.1509 59.2002 40.4999 59.2002C37.849 59.2002 35.6999 61.3492 35.6999 64.0002Z" fill="#4ED9DF"/>
    </g>
    <g opacity="0.625">
    <path d="M20.1353 53.5766C18.2608 55.4511 18.2608 58.4903 20.1353 60.3648C22.0098 62.2393 25.049 62.2393 26.9235 60.3648C28.798 58.4903 28.798 55.4511 26.9235 53.5766C25.049 51.7021 22.0098 51.7021 20.1353 53.5766Z" fill="#4ED9DF"/>
    </g>
    <g opacity="0.5">
    <path d="M16.4999 35.1998C13.849 35.1998 11.6999 37.3488 11.6999 39.9998C11.6999 42.6508 13.849 44.7998 16.4999 44.7998C19.1509 44.7998 21.2999 42.6508 21.2999 39.9998C21.2999 37.3488 19.1509 35.1998 16.4999 35.1998Z" fill="#4ED9DF"/>
    </g>
    <g opacity="0.375">
    <path d="M26.9235 19.635C25.049 17.7605 22.0098 17.7605 20.1353 19.635C18.2608 21.5096 18.2608 24.5488 20.1353 26.4233C22.0098 28.2978 25.049 28.2978 26.9235 26.4233C28.798 24.5488 28.798 21.5096 26.9235 19.635Z" fill="#4ED9DF"/>
    </g>
    <g opacity="0.25">
    <path d="M45.3 15.9998C45.3 13.3488 43.1509 11.1998 40.5 11.1998C37.849 11.1998 35.7 13.3488 35.7 15.9998C35.7 18.6508 37.849 20.7998 40.5 20.7998C43.1509 20.7998 45.3 18.6508 45.3 15.9998Z" fill="#4ED9DF"/>
    </g>
    <g opacity="0.125">
    <path d="M60.8647 26.4234C62.7392 24.5489 62.7392 21.5097 60.8647 19.6352C58.9902 17.7607 55.951 17.7607 54.0765 19.6352C52.202 21.5097 52.202 24.5489 54.0765 26.4234C55.951 28.2979 58.9902 28.2979 60.8647 26.4234Z" fill="#4ED9DF"/>
    </g>
    </svg>
    